<svg xmlns="http://www.w3.org/2000/svg" viewBox="0 0 460 460" width="460" height="460" font-family="ui-monospace,Menlo,Consolas,monospace">
  <rect x="0" y="0" width="460" height="460" fill="#ffffff"/>
  <circle cx="230.0" cy="230.0" r="168" fill="none" stroke="#1b2026" stroke-opacity="0.55" stroke-width="1.8"/>
  <line x1="230.00" y1="62.00" x2="375.49" y2="314.00" stroke="#1b2026" stroke-opacity="0.600" stroke-width="1.5" stroke-linecap="round"/>
  <line x1="375.49" y1="314.00" x2="84.51" y2="314.00" stroke="#1b2026" stroke-opacity="0.600" stroke-width="1.5" stroke-linecap="round"/>
  <line x1="84.51" y1="314.00" x2="230.00" y2="62.00" stroke="#1b2026" stroke-opacity="0.600" stroke-width="1.5" stroke-linecap="round"/>
  <line x1="230.00" y1="62.00" x2="398.00" y2="230.00" stroke="#1b2026" stroke-opacity="0.600" stroke-width="1.5" stroke-linecap="round"/>
  <line x1="398.00" y1="230.00" x2="230.00" y2="398.00" stroke="#1b2026" stroke-opacity="0.600" stroke-width="1.5" stroke-linecap="round"/>
  <line x1="230.00" y1="398.00" x2="62.00" y2="230.00" stroke="#1b2026" stroke-opacity="0.600" stroke-width="1.5" stroke-linecap="round"/>
  <line x1="62.00" y1="230.00" x2="230.00" y2="62.00" stroke="#1b2026" stroke-opacity="0.600" stroke-width="1.5" stroke-linecap="round"/>
  <line x1="230.00" y1="62.00" x2="389.78" y2="178.09" stroke="#1b2026" stroke-opacity="0.600" stroke-width="1.5" stroke-linecap="round"/>
  <line x1="389.78" y1="178.09" x2="328.75" y2="365.91" stroke="#1b2026" stroke-opacity="0.600" stroke-width="1.5" stroke-linecap="round"/>
  <line x1="328.75" y1="365.91" x2="131.25" y2="365.91" stroke="#1b2026" stroke-opacity="0.600" stroke-width="1.5" stroke-linecap="round"/>
  <line x1="131.25" y1="365.91" x2="70.22" y2="178.09" stroke="#1b2026" stroke-opacity="0.600" stroke-width="1.5" stroke-linecap="round"/>
  <line x1="70.22" y1="178.09" x2="230.00" y2="62.00" stroke="#1b2026" stroke-opacity="0.600" stroke-width="1.5" stroke-linecap="round"/>
  <line x1="230.00" y1="62.00" x2="328.75" y2="365.91" stroke="#1b2026" stroke-opacity="0.600" stroke-width="1.5" stroke-linecap="round"/>
  <line x1="328.75" y1="365.91" x2="70.22" y2="178.09" stroke="#1b2026" stroke-opacity="0.600" stroke-width="1.5" stroke-linecap="round"/>
  <line x1="70.22" y1="178.09" x2="389.78" y2="178.09" stroke="#1b2026" stroke-opacity="0.600" stroke-width="1.5" stroke-linecap="round"/>
  <line x1="389.78" y1="178.09" x2="131.25" y2="365.91" stroke="#1b2026" stroke-opacity="0.600" stroke-width="1.5" stroke-linecap="round"/>
  <line x1="131.25" y1="365.91" x2="230.00" y2="62.00" stroke="#1b2026" stroke-opacity="0.600" stroke-width="1.5" stroke-linecap="round"/>
  <line x1="230.00" y1="62.00" x2="375.49" y2="146.00" stroke="#1b2026" stroke-opacity="0.600" stroke-width="1.5" stroke-linecap="round"/>
  <line x1="375.49" y1="146.00" x2="375.49" y2="314.00" stroke="#1b2026" stroke-opacity="0.600" stroke-width="1.5" stroke-linecap="round"/>
  <line x1="375.49" y1="314.00" x2="230.00" y2="398.00" stroke="#1b2026" stroke-opacity="0.600" stroke-width="1.5" stroke-linecap="round"/>
  <line x1="230.00" y1="398.00" x2="84.51" y2="314.00" stroke="#1b2026" stroke-opacity="0.600" stroke-width="1.5" stroke-linecap="round"/>
  <line x1="84.51" y1="314.00" x2="84.51" y2="146.00" stroke="#1b2026" stroke-opacity="0.600" stroke-width="1.5" stroke-linecap="round"/>
  <line x1="84.51" y1="146.00" x2="230.00" y2="62.00" stroke="#1b2026" stroke-opacity="0.600" stroke-width="1.5" stroke-linecap="round"/>
  <line x1="230.00" y1="62.00" x2="361.35" y2="125.25" stroke="#1b2026" stroke-opacity="0.600" stroke-width="1.5" stroke-linecap="round"/>
  <line x1="361.35" y1="125.25" x2="393.79" y2="267.38" stroke="#1b2026" stroke-opacity="0.600" stroke-width="1.5" stroke-linecap="round"/>
  <line x1="393.79" y1="267.38" x2="302.89" y2="381.36" stroke="#1b2026" stroke-opacity="0.600" stroke-width="1.5" stroke-linecap="round"/>
  <line x1="302.89" y1="381.36" x2="157.11" y2="381.36" stroke="#1b2026" stroke-opacity="0.600" stroke-width="1.5" stroke-linecap="round"/>
  <line x1="157.11" y1="381.36" x2="66.21" y2="267.38" stroke="#1b2026" stroke-opacity="0.600" stroke-width="1.5" stroke-linecap="round"/>
  <line x1="66.21" y1="267.38" x2="98.65" y2="125.25" stroke="#1b2026" stroke-opacity="0.600" stroke-width="1.5" stroke-linecap="round"/>
  <line x1="98.65" y1="125.25" x2="230.00" y2="62.00" stroke="#1b2026" stroke-opacity="0.600" stroke-width="1.5" stroke-linecap="round"/>
  <line x1="230.00" y1="62.00" x2="393.79" y2="267.38" stroke="#1b2026" stroke-opacity="0.600" stroke-width="1.5" stroke-linecap="round"/>
  <line x1="393.79" y1="267.38" x2="157.11" y2="381.36" stroke="#1b2026" stroke-opacity="0.600" stroke-width="1.5" stroke-linecap="round"/>
  <line x1="157.11" y1="381.36" x2="98.65" y2="125.25" stroke="#1b2026" stroke-opacity="0.600" stroke-width="1.5" stroke-linecap="round"/>
  <line x1="98.65" y1="125.25" x2="361.35" y2="125.25" stroke="#1b2026" stroke-opacity="0.600" stroke-width="1.5" stroke-linecap="round"/>
  <line x1="361.35" y1="125.25" x2="302.89" y2="381.36" stroke="#1b2026" stroke-opacity="0.600" stroke-width="1.5" stroke-linecap="round"/>
  <line x1="302.89" y1="381.36" x2="66.21" y2="267.38" stroke="#1b2026" stroke-opacity="0.600" stroke-width="1.5" stroke-linecap="round"/>
  <line x1="66.21" y1="267.38" x2="230.00" y2="62.00" stroke="#1b2026" stroke-opacity="0.600" stroke-width="1.5" stroke-linecap="round"/>
  <line x1="230.00" y1="62.00" x2="302.89" y2="381.36" stroke="#1b2026" stroke-opacity="0.600" stroke-width="1.5" stroke-linecap="round"/>
  <line x1="302.89" y1="381.36" x2="98.65" y2="125.25" stroke="#1b2026" stroke-opacity="0.600" stroke-width="1.5" stroke-linecap="round"/>
  <line x1="98.65" y1="125.25" x2="393.79" y2="267.38" stroke="#1b2026" stroke-opacity="0.600" stroke-width="1.5" stroke-linecap="round"/>
  <line x1="393.79" y1="267.38" x2="66.21" y2="267.38" stroke="#1b2026" stroke-opacity="0.600" stroke-width="1.5" stroke-linecap="round"/>
  <line x1="66.21" y1="267.38" x2="361.35" y2="125.25" stroke="#1b2026" stroke-opacity="0.600" stroke-width="1.5" stroke-linecap="round"/>
  <line x1="361.35" y1="125.25" x2="157.11" y2="381.36" stroke="#1b2026" stroke-opacity="0.600" stroke-width="1.5" stroke-linecap="round"/>
  <line x1="157.11" y1="381.36" x2="230.00" y2="62.00" stroke="#1b2026" stroke-opacity="0.600" stroke-width="1.5" stroke-linecap="round"/>
  <line x1="230.00" y1="62.00" x2="348.79" y2="111.21" stroke="#1b2026" stroke-opacity="0.600" stroke-width="1.5" stroke-linecap="round"/>
  <line x1="348.79" y1="111.21" x2="398.00" y2="230.00" stroke="#1b2026" stroke-opacity="0.600" stroke-width="1.5" stroke-linecap="round"/>
  <line x1="398.00" y1="230.00" x2="348.79" y2="348.79" stroke="#1b2026" stroke-opacity="0.600" stroke-width="1.5" stroke-linecap="round"/>
  <line x1="348.79" y1="348.79" x2="230.00" y2="398.00" stroke="#1b2026" stroke-opacity="0.600" stroke-width="1.5" stroke-linecap="round"/>
  <line x1="230.00" y1="398.00" x2="111.21" y2="348.79" stroke="#1b2026" stroke-opacity="0.600" stroke-width="1.5" stroke-linecap="round"/>
  <line x1="111.21" y1="348.79" x2="62.00" y2="230.00" stroke="#1b2026" stroke-opacity="0.600" stroke-width="1.5" stroke-linecap="round"/>
  <line x1="62.00" y1="230.00" x2="111.21" y2="111.21" stroke="#1b2026" stroke-opacity="0.600" stroke-width="1.5" stroke-linecap="round"/>
  <line x1="111.21" y1="111.21" x2="230.00" y2="62.00" stroke="#1b2026" stroke-opacity="0.600" stroke-width="1.5" stroke-linecap="round"/>
  <line x1="230.00" y1="62.00" x2="348.79" y2="348.79" stroke="#1b2026" stroke-opacity="0.600" stroke-width="1.5" stroke-linecap="round"/>
  <line x1="348.79" y1="348.79" x2="62.00" y2="230.00" stroke="#1b2026" stroke-opacity="0.600" stroke-width="1.5" stroke-linecap="round"/>
  <line x1="62.00" y1="230.00" x2="348.79" y2="111.21" stroke="#1b2026" stroke-opacity="0.600" stroke-width="1.5" stroke-linecap="round"/>
  <line x1="348.79" y1="111.21" x2="230.00" y2="398.00" stroke="#1b2026" stroke-opacity="0.600" stroke-width="1.5" stroke-linecap="round"/>
  <line x1="230.00" y1="398.00" x2="111.21" y2="111.21" stroke="#1b2026" stroke-opacity="0.600" stroke-width="1.5" stroke-linecap="round"/>
  <line x1="111.21" y1="111.21" x2="398.00" y2="230.00" stroke="#1b2026" stroke-opacity="0.600" stroke-width="1.5" stroke-linecap="round"/>
  <line x1="398.00" y1="230.00" x2="111.21" y2="348.79" stroke="#1b2026" stroke-opacity="0.600" stroke-width="1.5" stroke-linecap="round"/>
  <line x1="111.21" y1="348.79" x2="230.00" y2="62.00" stroke="#1b2026" stroke-opacity="0.600" stroke-width="1.5" stroke-linecap="round"/>
  <circle cx="230.00" cy="62.00" r="12.5" fill="#ffffff"/>
  <circle cx="230.00" cy="62.00" r="9.5" fill="#1b2026"/>
</svg>
