<svg xmlns="http://www.w3.org/2000/svg" viewBox="0 0 660 444" width="660" height="444" font-family="ui-monospace,Menlo,Consolas,monospace">
  <rect x="0" y="0" width="660" height="444" fill="#ffffff"/>
  <circle cx="110.0" cy="104.0" r="76.0" fill="none" stroke="#1b2026" stroke-opacity="0.4" stroke-width="1.1"/>
  <line x1="110.00" y1="28.00" x2="175.82" y2="142.00" stroke="#1b2026" stroke-opacity="0.750" stroke-width="1.3" stroke-linecap="butt"/>
  <line x1="175.82" y1="142.00" x2="44.18" y2="142.00" stroke="#1b2026" stroke-opacity="0.750" stroke-width="1.3" stroke-linecap="butt"/>
  <line x1="44.18" y1="142.00" x2="110.00" y2="28.00" stroke="#1b2026" stroke-opacity="0.750" stroke-width="1.3" stroke-linecap="butt"/>
  <circle cx="110.00" cy="28.00" r="2.6" fill="#1b2026" fill-opacity="0.900"/>
  <circle cx="175.82" cy="142.00" r="2.6" fill="#1b2026" fill-opacity="0.900"/>
  <circle cx="44.18" cy="142.00" r="2.6" fill="#1b2026" fill-opacity="0.900"/>
  <text x="110.00" y="202.00" font-size="12" fill="#1b2026" fill-opacity="0.800" text-anchor="middle" font-weight="400" dominant-baseline="middle">{3/1} — 3 marks</text>
  <circle cx="330.0" cy="104.0" r="76.0" fill="none" stroke="#1b2026" stroke-opacity="0.4" stroke-width="1.1"/>
  <line x1="330.00" y1="28.00" x2="406.00" y2="104.00" stroke="#1b2026" stroke-opacity="0.750" stroke-width="1.3" stroke-linecap="butt"/>
  <line x1="406.00" y1="104.00" x2="330.00" y2="180.00" stroke="#1b2026" stroke-opacity="0.750" stroke-width="1.3" stroke-linecap="butt"/>
  <line x1="330.00" y1="180.00" x2="254.00" y2="104.00" stroke="#1b2026" stroke-opacity="0.750" stroke-width="1.3" stroke-linecap="butt"/>
  <line x1="254.00" y1="104.00" x2="330.00" y2="28.00" stroke="#1b2026" stroke-opacity="0.750" stroke-width="1.3" stroke-linecap="butt"/>
  <circle cx="330.00" cy="28.00" r="2.6" fill="#1b2026" fill-opacity="0.900"/>
  <circle cx="406.00" cy="104.00" r="2.6" fill="#1b2026" fill-opacity="0.900"/>
  <circle cx="330.00" cy="180.00" r="2.6" fill="#1b2026" fill-opacity="0.900"/>
  <circle cx="254.00" cy="104.00" r="2.6" fill="#1b2026" fill-opacity="0.900"/>
  <text x="330.00" y="202.00" font-size="12" fill="#1b2026" fill-opacity="0.800" text-anchor="middle" font-weight="400" dominant-baseline="middle">{4/1} — 4 marks</text>
  <circle cx="550.0" cy="104.0" r="76.0" fill="none" stroke="#1b2026" stroke-opacity="0.4" stroke-width="1.1"/>
  <line x1="550.00" y1="28.00" x2="622.28" y2="80.51" stroke="#1b2026" stroke-opacity="0.750" stroke-width="1.3" stroke-linecap="butt"/>
  <line x1="622.28" y1="80.51" x2="594.67" y2="165.49" stroke="#1b2026" stroke-opacity="0.750" stroke-width="1.3" stroke-linecap="butt"/>
  <line x1="594.67" y1="165.49" x2="505.33" y2="165.49" stroke="#1b2026" stroke-opacity="0.750" stroke-width="1.3" stroke-linecap="butt"/>
  <line x1="505.33" y1="165.49" x2="477.72" y2="80.51" stroke="#1b2026" stroke-opacity="0.750" stroke-width="1.3" stroke-linecap="butt"/>
  <line x1="477.72" y1="80.51" x2="550.00" y2="28.00" stroke="#1b2026" stroke-opacity="0.750" stroke-width="1.3" stroke-linecap="butt"/>
  <circle cx="550.00" cy="28.00" r="2.6" fill="#1b2026" fill-opacity="0.900"/>
  <circle cx="622.28" cy="80.51" r="2.6" fill="#1b2026" fill-opacity="0.900"/>
  <circle cx="594.67" cy="165.49" r="2.6" fill="#1b2026" fill-opacity="0.900"/>
  <circle cx="505.33" cy="165.49" r="2.6" fill="#1b2026" fill-opacity="0.900"/>
  <circle cx="477.72" cy="80.51" r="2.6" fill="#1b2026" fill-opacity="0.900"/>
  <text x="550.00" y="202.00" font-size="12" fill="#1b2026" fill-opacity="0.800" text-anchor="middle" font-weight="400" dominant-baseline="middle">{5/1} — 5 marks</text>
  <circle cx="110.0" cy="324.0" r="76.0" fill="none" stroke="#1b2026" stroke-opacity="0.4" stroke-width="1.1"/>
  <line x1="110.00" y1="248.00" x2="175.82" y2="286.00" stroke="#1b2026" stroke-opacity="0.750" stroke-width="1.3" stroke-linecap="butt"/>
  <line x1="175.82" y1="286.00" x2="175.82" y2="362.00" stroke="#1b2026" stroke-opacity="0.750" stroke-width="1.3" stroke-linecap="butt"/>
  <line x1="175.82" y1="362.00" x2="110.00" y2="400.00" stroke="#1b2026" stroke-opacity="0.750" stroke-width="1.3" stroke-linecap="butt"/>
  <line x1="110.00" y1="400.00" x2="44.18" y2="362.00" stroke="#1b2026" stroke-opacity="0.750" stroke-width="1.3" stroke-linecap="butt"/>
  <line x1="44.18" y1="362.00" x2="44.18" y2="286.00" stroke="#1b2026" stroke-opacity="0.750" stroke-width="1.3" stroke-linecap="butt"/>
  <line x1="44.18" y1="286.00" x2="110.00" y2="248.00" stroke="#1b2026" stroke-opacity="0.750" stroke-width="1.3" stroke-linecap="butt"/>
  <circle cx="110.00" cy="248.00" r="2.6" fill="#1b2026" fill-opacity="0.900"/>
  <circle cx="175.82" cy="286.00" r="2.6" fill="#1b2026" fill-opacity="0.900"/>
  <circle cx="175.82" cy="362.00" r="2.6" fill="#1b2026" fill-opacity="0.900"/>
  <circle cx="110.00" cy="400.00" r="2.6" fill="#1b2026" fill-opacity="0.900"/>
  <circle cx="44.18" cy="362.00" r="2.6" fill="#1b2026" fill-opacity="0.900"/>
  <circle cx="44.18" cy="286.00" r="2.6" fill="#1b2026" fill-opacity="0.900"/>
  <text x="110.00" y="422.00" font-size="12" fill="#1b2026" fill-opacity="0.800" text-anchor="middle" font-weight="400" dominant-baseline="middle">{6/1} — 6 marks</text>
  <circle cx="330.0" cy="324.0" r="76.0" fill="none" stroke="#1b2026" stroke-opacity="0.4" stroke-width="1.1"/>
  <line x1="330.00" y1="248.00" x2="389.42" y2="276.61" stroke="#1b2026" stroke-opacity="0.750" stroke-width="1.3" stroke-linecap="butt"/>
  <line x1="389.42" y1="276.61" x2="404.09" y2="340.91" stroke="#1b2026" stroke-opacity="0.750" stroke-width="1.3" stroke-linecap="butt"/>
  <line x1="404.09" y1="340.91" x2="362.98" y2="392.47" stroke="#1b2026" stroke-opacity="0.750" stroke-width="1.3" stroke-linecap="butt"/>
  <line x1="362.98" y1="392.47" x2="297.02" y2="392.47" stroke="#1b2026" stroke-opacity="0.750" stroke-width="1.3" stroke-linecap="butt"/>
  <line x1="297.02" y1="392.47" x2="255.91" y2="340.91" stroke="#1b2026" stroke-opacity="0.750" stroke-width="1.3" stroke-linecap="butt"/>
  <line x1="255.91" y1="340.91" x2="270.58" y2="276.61" stroke="#1b2026" stroke-opacity="0.750" stroke-width="1.3" stroke-linecap="butt"/>
  <line x1="270.58" y1="276.61" x2="330.00" y2="248.00" stroke="#1b2026" stroke-opacity="0.750" stroke-width="1.3" stroke-linecap="butt"/>
  <circle cx="330.00" cy="248.00" r="2.6" fill="#1b2026" fill-opacity="0.900"/>
  <circle cx="389.42" cy="276.61" r="2.6" fill="#1b2026" fill-opacity="0.900"/>
  <circle cx="404.09" cy="340.91" r="2.6" fill="#1b2026" fill-opacity="0.900"/>
  <circle cx="362.98" cy="392.47" r="2.6" fill="#1b2026" fill-opacity="0.900"/>
  <circle cx="297.02" cy="392.47" r="2.6" fill="#1b2026" fill-opacity="0.900"/>
  <circle cx="255.91" cy="340.91" r="2.6" fill="#1b2026" fill-opacity="0.900"/>
  <circle cx="270.58" cy="276.61" r="2.6" fill="#1b2026" fill-opacity="0.900"/>
  <text x="330.00" y="422.00" font-size="12" fill="#1b2026" fill-opacity="0.800" text-anchor="middle" font-weight="400" dominant-baseline="middle">{7/1} — 7 marks</text>
  <circle cx="550.0" cy="324.0" r="76.0" fill="none" stroke="#1b2026" stroke-opacity="0.4" stroke-width="1.1"/>
  <line x1="550.00" y1="248.00" x2="603.74" y2="270.26" stroke="#1b2026" stroke-opacity="0.750" stroke-width="1.3" stroke-linecap="butt"/>
  <line x1="603.74" y1="270.26" x2="626.00" y2="324.00" stroke="#1b2026" stroke-opacity="0.750" stroke-width="1.3" stroke-linecap="butt"/>
  <line x1="626.00" y1="324.00" x2="603.74" y2="377.74" stroke="#1b2026" stroke-opacity="0.750" stroke-width="1.3" stroke-linecap="butt"/>
  <line x1="603.74" y1="377.74" x2="550.00" y2="400.00" stroke="#1b2026" stroke-opacity="0.750" stroke-width="1.3" stroke-linecap="butt"/>
  <line x1="550.00" y1="400.00" x2="496.26" y2="377.74" stroke="#1b2026" stroke-opacity="0.750" stroke-width="1.3" stroke-linecap="butt"/>
  <line x1="496.26" y1="377.74" x2="474.00" y2="324.00" stroke="#1b2026" stroke-opacity="0.750" stroke-width="1.3" stroke-linecap="butt"/>
  <line x1="474.00" y1="324.00" x2="496.26" y2="270.26" stroke="#1b2026" stroke-opacity="0.750" stroke-width="1.3" stroke-linecap="butt"/>
  <line x1="496.26" y1="270.26" x2="550.00" y2="248.00" stroke="#1b2026" stroke-opacity="0.750" stroke-width="1.3" stroke-linecap="butt"/>
  <circle cx="550.00" cy="248.00" r="2.6" fill="#1b2026" fill-opacity="0.900"/>
  <circle cx="603.74" cy="270.26" r="2.6" fill="#1b2026" fill-opacity="0.900"/>
  <circle cx="626.00" cy="324.00" r="2.6" fill="#1b2026" fill-opacity="0.900"/>
  <circle cx="603.74" cy="377.74" r="2.6" fill="#1b2026" fill-opacity="0.900"/>
  <circle cx="550.00" cy="400.00" r="2.6" fill="#1b2026" fill-opacity="0.900"/>
  <circle cx="496.26" cy="377.74" r="2.6" fill="#1b2026" fill-opacity="0.900"/>
  <circle cx="474.00" cy="324.00" r="2.6" fill="#1b2026" fill-opacity="0.900"/>
  <circle cx="496.26" cy="270.26" r="2.6" fill="#1b2026" fill-opacity="0.900"/>
  <text x="550.00" y="422.00" font-size="12" fill="#1b2026" fill-opacity="0.800" text-anchor="middle" font-weight="400" dominant-baseline="middle">{8/1} — 8 marks</text>
</svg>
